<?xml version="1.0" encoding="UTF-8" standalone="no"?>
<!-- Created with Inkscape (http://www.inkscape.org/) -->

<svg
   xmlns:dc="http://purl.org/dc/elements/1.1/"
   xmlns:cc="http://creativecommons.org/ns#"
   xmlns:rdf="http://www.w3.org/1999/02/22-rdf-syntax-ns#"
   xmlns:svg="http://www.w3.org/2000/svg"
   xmlns="http://www.w3.org/2000/svg"
   xmlns:sodipodi="http://sodipodi.sourceforge.net/DTD/sodipodi-0.dtd"
   xmlns:inkscape="http://www.inkscape.org/namespaces/inkscape"
   width="94.261612mm"
   height="9.8001661mm"
   viewBox="0 0 94.261612 9.8001661"
   version="1.1"
   id="svg8"
   sodipodi:docname="email.svg"
   inkscape:version="0.92.4 (f8dce91, 2019-08-02)">
  <defs
     id="defs2" />
  <sodipodi:namedview
     id="base"
     pagecolor="#ffffff"
     bordercolor="#666666"
     borderopacity="1.0"
     inkscape:pageopacity="0.0"
     inkscape:pageshadow="2"
     inkscape:zoom="1.7378893"
     inkscape:cx="241.42857"
     inkscape:cy="-54.285714"
     inkscape:document-units="mm"
     inkscape:current-layer="layer1"
     showgrid="false"
     fit-margin-top="0"
     fit-margin-left="0"
     fit-margin-right="0"
     fit-margin-bottom="0"
     inkscape:window-width="1920"
     inkscape:window-height="978"
     inkscape:window-x="0"
     inkscape:window-y="27"
     inkscape:window-maximized="1" />
  <metadata
     id="metadata5">
    <rdf:RDF>
      <cc:Work
         rdf:about="">
        <dc:format>image/svg+xml</dc:format>
        <dc:type
           rdf:resource="http://purl.org/dc/dcmitype/StillImage" />
        <dc:title></dc:title>
      </cc:Work>
    </rdf:RDF>
  </metadata>
  <g
     inkscape:label="Layer 1"
     inkscape:groupmode="layer"
     id="layer1"
     transform="translate(424.72883,-41.872119)">
    <g
       aria-label="yuri.rapoport@gmail.com"
       style="font-style:normal;font-variant:normal;font-weight:normal;font-stretch:normal;font-size:10.58333302px;line-height:1.25;font-family:'URW Chancery L';-inkscape-font-specification:'URW Chancery L';letter-spacing:0px;word-spacing:0px;fill:#031da3;fill-opacity:1;stroke:none;stroke-width:0.26458332"
       id="text817">
      <path
         d="m -424.72883,51.598202 c 0.32808,0.04233 0.79375,0.07408 1.16417,0.07408 0.74083,0 1.16416,-0.201083 1.76741,-0.846666 0.61384,-0.656167 0.65617,-0.772583 1.02659,-2.497667 0.37041,-1.703916 0.5715,-2.497666 0.93133,-3.672416 -0.13758,0.07408 -0.254,0.137583 -0.29633,0.15875 l -0.37042,0.179916 c -0.0529,0.03175 -0.13758,0.0635 -0.23283,0.116417 l -0.64559,2.57175 c -1.05833,0.656167 -1.11125,0.687917 -1.29116,0.687917 -0.13759,0 -0.23284,-0.148167 -0.23284,-0.338667 0,-0.232833 0.0953,-0.719667 0.29634,-1.471083 0.26458,-1.04775 0.41275,-1.640417 0.41275,-1.735667 0,-0.07408 -0.0529,-0.127 -0.11642,-0.127 -0.11642,0 -0.79375,0.359833 -1.68275,0.889 l -0.0317,0.28575 c 0.49742,-0.254 0.61383,-0.306917 0.73025,-0.306917 0.10583,0 0.15875,0.0635 0.15875,0.15875 0,0.1905 -0.0741,0.508 -0.32808,1.439334 -0.254,0.92075 -0.30692,1.153583 -0.30692,1.42875 0,0.338666 0.15875,0.592666 0.37042,0.592666 0.20108,0 1.04775,-0.508 1.98966,-1.185333 -0.40216,1.93675 -0.40216,1.93675 -0.52916,2.328333 -0.16934,0.53975 -0.508,0.740833 -1.19592,0.740833 -0.30692,0 -0.53975,-0.04233 -1.16417,-0.1905 z"
         style="stroke-width:0.26458332;fill:#031da3;fill-opacity:1"
         id="path857" />
      <path
         d="m -419.73994,45.872619 c 0.4445,-0.22225 0.64558,-0.306917 0.77258,-0.306917 0.0847,0 0.14817,0.08467 0.14817,0.201084 0,0.137583 -0.10584,0.592666 -0.29634,1.312333 -0.26458,0.98425 -0.32808,1.280583 -0.32808,1.5875 0,0.296333 0.127,0.518583 0.29633,0.518583 0.15875,0 0.34925,-0.09525 0.87842,-0.4445 l 1.09008,-0.709083 c -0.0847,0.338667 -0.14816,0.719667 -0.14816,0.910167 0,0.137583 0.0847,0.243416 0.1905,0.243416 0.21166,0 1.21708,-0.592666 1.93675,-1.132416 l 0.0741,-0.3175 c -0.8255,0.486833 -1.10067,0.635 -1.21708,0.635 -0.0741,0 -0.11642,-0.08467 -0.11642,-0.254 0,-0.53975 0.39158,-2.116667 0.84667,-3.46075 -0.13759,0.07408 -0.23284,0.127 -0.27517,0.148166 -0.127,0.0635 -0.254,0.127 -0.39158,0.1905 -0.0317,0.01058 -0.0952,0.04233 -0.21167,0.105834 -0.0635,0.243416 -0.27517,1.090083 -0.62442,2.550583 -0.81491,0.560917 -1.18533,0.772583 -1.31233,0.772583 -0.11642,0 -0.20108,-0.148166 -0.20108,-0.34925 0,-0.243416 0.0847,-0.66675 0.26458,-1.344083 0.11642,-0.423333 0.1905,-0.719667 0.22225,-0.867833 0.0953,-0.391584 0.16933,-0.66675 0.1905,-0.740834 0.0318,-0.116416 0.0529,-0.211666 0.0529,-0.28575 0,-0.08467 -0.0529,-0.137583 -0.127,-0.137583 -0.10584,0 -0.87842,0.41275 -1.64042,0.889 z"
         style="stroke-width:0.26458332;fill:#031da3;fill-opacity:1"
         id="path859" />
      <path
         d="m -414.77702,49.153452 0.81491,-0.306916 0.79375,-3.01625 c 0.35984,-0.264584 0.60325,-0.370417 0.889,-0.370417 0.23284,0 0.37042,0.08467 0.56092,0.328083 l 0.3175,-1.005416 c -0.20108,-0.0635 -0.28575,-0.08467 -0.39158,-0.08467 -0.1905,0 -0.41275,0.09525 -0.6985,0.296333 l -0.62442,0.455084 c 0.0106,-0.08467 0.0317,-0.137584 0.0317,-0.169334 0.0847,-0.34925 0.0952,-0.41275 0.0952,-0.465666 0,-0.0635 -0.0635,-0.116417 -0.13758,-0.116417 -0.13759,0 -1.06892,0.455083 -1.7145,0.846667 l -0.0317,0.28575 c 0.5715,-0.296334 0.635,-0.3175 0.762,-0.3175 0.13758,0 0.20108,0.07408 0.20108,0.22225 0,0.148166 -0.10583,0.645583 -0.23283,1.100666 z"
         style="stroke-width:0.26458332;fill:#031da3;fill-opacity:1"
         id="path861" />
      <path
         d="m -409.98509,43.819452 c 0.30692,-0.275166 0.32808,-0.296333 0.68792,-0.5715 -0.0635,-0.127 -0.11642,-0.211666 -0.13759,-0.243416 -0.0635,-0.127 -0.0741,-0.137584 -0.15875,-0.338667 -0.0212,-0.04233 -0.0423,-0.08467 -0.0635,-0.137583 -0.0529,0.04233 -0.11641,0.08467 -0.14816,0.116416 -0.0423,0.04233 -0.127,0.105834 -0.23284,0.1905 -0.0529,0.04233 -0.127,0.09525 -0.22225,0.15875 -0.0423,0.03175 -0.0847,0.0635 -0.127,0.08467 0.0741,0.232833 0.16934,0.402167 0.40217,0.740833 z m 0.73025,4.0005 c -1.00542,0.53975 -1.02658,0.550334 -1.16417,0.550334 -0.11641,0 -0.1905,-0.116417 -0.1905,-0.296334 0,-0.105833 0.0317,-0.306916 0.0953,-0.53975 0.53975,-2.2225 0.64559,-2.645833 0.64559,-2.7305 0,-0.0635 -0.0529,-0.105833 -0.127,-0.105833 -0.17992,0 -0.80434,0.34925 -1.67217,0.931333 l -0.0212,0.296334 c 0.62442,-0.338667 0.67734,-0.359834 0.77259,-0.359834 0.0847,0 0.127,0.0635 0.127,0.1905 0,0.137584 -0.0317,0.28575 -0.1905,0.889 -0.49742,1.852084 -0.49742,1.852084 -0.49742,2.116667 0,0.254 0.10583,0.423333 0.254,0.423333 0.17992,0 0.46567,-0.137583 1.02658,-0.497416 0.20109,-0.127 0.40217,-0.254 0.60325,-0.391584 0.0952,-0.05292 0.1905,-0.116416 0.29634,-0.179916 z"
         style="stroke-width:0.26458332;fill:#031da3;fill-opacity:1"
         id="path863" />
      <path
         d="m -408.58561,48.105702 -0.28575,0.22225 c 0.0847,0.232834 0.29634,0.5715 0.49742,0.814917 0.40217,-0.296333 0.49742,-0.370417 0.78317,-0.66675 -0.127,-0.179917 -0.23284,-0.34925 -0.24342,-0.359833 -0.0741,-0.116417 -0.127,-0.201084 -0.254,-0.423334 -0.0317,0.03175 -0.0847,0.07408 -0.14817,0.127 -0.0847,0.0635 -0.16933,0.137584 -0.254,0.211667 z"
         style="stroke-width:0.26458332;fill:#031da3;fill-opacity:1"
         id="path865" />
      <path
         d="m -406.7155,49.153452 0.81492,-0.306916 0.79375,-3.01625 c 0.35983,-0.264584 0.60325,-0.370417 0.889,-0.370417 0.23283,0 0.37041,0.08467 0.56091,0.328083 l 0.3175,-1.005416 c -0.20108,-0.0635 -0.28575,-0.08467 -0.39158,-0.08467 -0.1905,0 -0.41275,0.09525 -0.6985,0.296333 l -0.62442,0.455084 c 0.0106,-0.08467 0.0317,-0.137584 0.0317,-0.169334 0.0847,-0.34925 0.0953,-0.41275 0.0953,-0.465666 0,-0.0635 -0.0635,-0.116417 -0.13758,-0.116417 -0.13758,0 -1.06892,0.455083 -1.7145,0.846667 l -0.0317,0.28575 c 0.5715,-0.296334 0.635,-0.3175 0.762,-0.3175 0.13758,0 0.20108,0.07408 0.20108,0.22225 0,0.148166 -0.10583,0.645583 -0.23283,1.100666 z"
         style="stroke-width:0.26458332;fill:#031da3;fill-opacity:1"
         id="path867" />
      <path
         d="m -399.27773,47.671786 c -0.79375,0.529166 -0.9525,0.624416 -1.05834,0.624416 -0.0741,0 -0.127,-0.08467 -0.127,-0.211666 0,-0.275167 0.254,-1.439334 0.635,-2.846917 0.11642,-0.15875 0.13759,-0.1905 0.30692,-0.381 -0.508,-0.116417 -0.87842,-0.15875 -1.3335,-0.15875 -0.43392,0 -0.635,0.04233 -0.91017,0.211667 -0.381,0.22225 -0.8255,0.550333 -0.96308,0.6985 -0.39158,0.4445 -0.83608,1.87325 -0.83608,2.7305 0,0.508 0.16933,0.846666 0.43391,0.846666 0.23284,0 0.58209,-0.211666 1.905,-1.164166 -0.10583,0.486833 -0.15875,0.814916 -0.15875,0.941916 0,0.137584 0.0635,0.22225 0.16934,0.22225 0.127,0 0.127,0 0.97366,-0.53975 0.30692,-0.201083 0.55034,-0.370416 0.9525,-0.66675 z m -2.06375,0.0635 c -0.62442,0.455083 -0.94192,0.635 -1.13242,0.635 -0.16933,0 -0.27517,-0.1905 -0.27517,-0.529167 0,-0.529167 0.16934,-1.248833 0.43392,-1.852083 0.254,-0.582084 0.48683,-0.804334 0.84667,-0.804334 0.1905,0 0.51858,0.05292 0.89958,0.137584 -0.21167,0.804333 -0.28575,1.04775 -0.29633,1.100666 -0.0635,0.264584 -0.11642,0.529167 -0.17992,0.804334 -0.0106,0.05292 -0.0423,0.179916 -0.0953,0.370416 z"
         style="stroke-width:0.26458332;fill:#031da3;fill-opacity:1"
         id="path869" />
      <path
         d="m -399.80773,51.301869 -0.3175,0.338666 c 0.30692,0.01058 1.48167,0.03175 1.79917,0.03175 0.0847,0 0.23283,0 0.49742,-0.01058 l 0.32808,-0.264583 -1.18533,-0.0635 0.508,-2.25425 c 0.21166,0.04233 0.32808,0.05292 0.508,0.05292 0.46566,0 0.71966,-0.09525 1.143,-0.433917 0.53975,-0.41275 0.74083,-0.60325 0.87841,-0.79375 0.37042,-0.53975 0.70909,-1.672167 0.70909,-2.360083 0,-0.508 -0.22225,-0.846667 -0.5715,-0.846667 -0.254,0 -0.61384,0.15875 -1.04775,0.47625 l -0.86784,0.624417 c 0.0318,-0.116417 0.0529,-0.232834 0.0741,-0.296334 0.0953,-0.402166 0.14816,-0.624416 0.14816,-0.66675 0,-0.0635 -0.0741,-0.137583 -0.14816,-0.137583 -0.10584,0 -0.96309,0.455083 -1.74625,0.92075 l -0.0635,0.275167 c 0.13758,-0.05292 0.26458,-0.105834 0.30691,-0.127 0.30692,-0.137584 0.37042,-0.15875 0.45509,-0.15875 0.127,0 0.20108,0.105833 0.20108,0.296333 0,0.381 -0.635,3.132667 -1.22767,5.376333 z m 1.80975,-2.95275 c 0.14817,-0.709083 0.28575,-1.291167 0.39159,-1.74625 0.0106,-0.05292 0.0423,-0.1905 0.0847,-0.381 0.87842,-0.635 1.19592,-0.814917 1.47109,-0.814917 0.21166,0 0.34925,0.232834 0.34925,0.582084 0,0.47625 -0.14817,1.068916 -0.41275,1.651 -0.28575,0.624416 -0.64559,0.941916 -1.0795,0.941916 -0.26459,0 -0.55034,-0.08467 -0.80434,-0.232833 z"
         style="stroke-width:0.26458332;fill:#031da3;fill-opacity:1"
         id="path871" />
      <path
         d="m -391.59026,44.697869 c -0.42334,0 -1.10067,0.306917 -1.72509,0.772583 -0.67733,0.508 -1.15358,1.608667 -1.15358,2.656417 0,0.645583 0.35983,1.058333 0.92075,1.058333 0.29633,0 0.59267,-0.105833 1.0795,-0.359833 0.52917,-0.296333 0.87842,-0.560917 1.06892,-0.814917 0.42333,-0.5715 0.762,-1.608666 0.762,-2.338916 0,-0.5715 -0.39159,-0.973667 -0.9525,-0.973667 z m -0.55034,0.497417 c 0.42334,0 0.68792,0.41275 0.68792,1.04775 0,0.4445 -0.14817,0.994833 -0.41275,1.513416 -0.29633,0.60325 -0.67733,0.931334 -1.0795,0.931334 -0.43392,0 -0.70908,-0.391584 -0.70908,-0.994834 0,-1.227666 0.77258,-2.497666 1.51341,-2.497666 z"
         style="stroke-width:0.26458332;fill:#031da3;fill-opacity:1"
         id="path873" />
      <path
         d="m -390.91938,51.301869 -0.3175,0.338666 c 0.30692,0.01058 1.48167,0.03175 1.79917,0.03175 0.0847,0 0.23283,0 0.49741,-0.01058 l 0.32809,-0.264583 -1.18534,-0.0635 0.508,-2.25425 c 0.21167,0.04233 0.32809,0.05292 0.508,0.05292 0.46567,0 0.71967,-0.09525 1.143,-0.433917 0.53975,-0.41275 0.74084,-0.60325 0.87842,-0.79375 0.37042,-0.53975 0.70908,-1.672167 0.70908,-2.360083 0,-0.508 -0.22225,-0.846667 -0.5715,-0.846667 -0.254,0 -0.61383,0.15875 -1.04775,0.47625 l -0.86783,0.624417 c 0.0318,-0.116417 0.0529,-0.232834 0.0741,-0.296334 0.0952,-0.402166 0.14817,-0.624416 0.14817,-0.66675 0,-0.0635 -0.0741,-0.137583 -0.14817,-0.137583 -0.10583,0 -0.96308,0.455083 -1.74625,0.92075 l -0.0635,0.275167 c 0.13759,-0.05292 0.26459,-0.105834 0.30692,-0.127 0.30692,-0.137584 0.37042,-0.15875 0.45508,-0.15875 0.127,0 0.20109,0.105833 0.20109,0.296333 0,0.381 -0.635,3.132667 -1.22767,5.376333 z m 1.80975,-2.95275 c 0.14817,-0.709083 0.28575,-1.291167 0.39158,-1.74625 0.0106,-0.05292 0.0423,-0.1905 0.0847,-0.381 0.87842,-0.635 1.19592,-0.814917 1.47108,-0.814917 0.21167,0 0.34925,0.232834 0.34925,0.582084 0,0.47625 -0.14816,1.068916 -0.41275,1.651 -0.28575,0.624416 -0.64558,0.941916 -1.0795,0.941916 -0.26458,0 -0.55033,-0.08467 -0.80433,-0.232833 z"
         style="stroke-width:0.26458332;fill:#031da3;fill-opacity:1"
         id="path875" />
      <path
         d="m -382.70192,44.697869 c -0.42333,0 -1.10067,0.306917 -1.72508,0.772583 -0.67734,0.508 -1.15359,1.608667 -1.15359,2.656417 0,0.645583 0.35984,1.058333 0.92075,1.058333 0.29634,0 0.59267,-0.105833 1.0795,-0.359833 0.52917,-0.296333 0.87842,-0.560917 1.06892,-0.814917 0.42333,-0.5715 0.762,-1.608666 0.762,-2.338916 0,-0.5715 -0.39158,-0.973667 -0.9525,-0.973667 z m -0.55033,0.497417 c 0.42333,0 0.68791,0.41275 0.68791,1.04775 0,0.4445 -0.14816,0.994833 -0.41275,1.513416 -0.29633,0.60325 -0.67733,0.931334 -1.0795,0.931334 -0.43391,0 -0.70908,-0.391584 -0.70908,-0.994834 0,-1.227666 0.77258,-2.497666 1.51342,-2.497666 z"
         style="stroke-width:0.26458332;fill:#031da3;fill-opacity:1"
         id="path877" />
      <path
         d="m -381.31137,49.153452 0.81492,-0.306916 0.79375,-3.01625 c 0.35983,-0.264584 0.60325,-0.370417 0.889,-0.370417 0.23283,0 0.37042,0.08467 0.56092,0.328083 l 0.3175,-1.005416 c -0.20109,-0.0635 -0.28575,-0.08467 -0.39159,-0.08467 -0.1905,0 -0.41275,0.09525 -0.6985,0.296333 l -0.62441,0.455084 c 0.0106,-0.08467 0.0318,-0.137584 0.0318,-0.169334 0.0847,-0.34925 0.0952,-0.41275 0.0952,-0.465666 0,-0.0635 -0.0635,-0.116417 -0.13759,-0.116417 -0.13758,0 -1.06891,0.455083 -1.7145,0.846667 l -0.0317,0.28575 c 0.5715,-0.296334 0.635,-0.3175 0.762,-0.3175 0.13759,0 0.20109,0.07408 0.20109,0.22225 0,0.148166 -0.10584,0.645583 -0.23284,1.100666 z"
         style="stroke-width:0.26458332;fill:#031da3;fill-opacity:1"
         id="path879" />
      <path
         d="m -375.23885,47.714119 c -0.80433,0.47625 -1.143,0.656167 -1.29116,0.656167 -0.13759,0 -0.30692,-0.275167 -0.30692,-0.497417 0,-0.148167 0.17992,-0.963083 0.45508,-2.074333 0.14817,-0.01058 0.254,-0.01058 0.30692,-0.01058 l 0.42333,-0.01058 c 0.0423,0 0.14817,-0.01058 0.3175,-0.03175 l 0.40217,-0.306917 h -1.35467 l 0.42334,-1.7145 c -0.20109,0.105834 -0.28575,0.137584 -0.4445,0.211667 -0.0741,0.04233 -0.15875,0.07408 -0.24342,0.116417 -0.0423,0.02117 -0.0953,0.04233 -0.14817,0.0635 l -0.29633,1.322916 c -0.0953,0.01058 -0.15875,0.01058 -0.1905,0.01058 h -0.254 c -0.0212,0 -0.0741,0 -0.15875,0.01058 -0.11642,0.07408 -0.127,0.07408 -0.30692,0.22225 -0.0317,0.02117 -0.0847,0.0635 -0.15875,0.116417 h 0.254 0.48684 0.23283 c -0.56092,2.3495 -0.56092,2.3495 -0.56092,2.677583 0,0.338667 0.22225,0.709083 0.42334,0.709083 0.23283,0 0.9525,-0.4445 1.9685,-1.2065 z"
         style="stroke-width:0.26458332;fill:#031da3;fill-opacity:1"
         id="path881" />
      <path
         d="m -369.70046,48.465536 c -0.92075,0.338666 -1.95791,0.53975 -2.84691,0.53975 -0.89959,0 -1.36525,-0.47625 -1.36525,-1.36525 0,-0.719667 0.13758,-1.513417 0.37041,-2.201334 0.33867,-1.005416 0.84667,-1.5875 1.64042,-1.926166 0.60325,-0.243417 1.38642,-0.391584 2.159,-0.391584 0.96308,0 1.44992,0.381 1.44992,1.164167 0,0.486833 -0.16934,1.164167 -0.49742,1.926167 -0.29633,0.709083 -0.67733,1.090083 -1.09008,1.090083 -0.11642,0 -0.16934,-0.07408 -0.16934,-0.232833 0,-0.211667 0.22225,-1.322917 0.52917,-2.582334 0.15875,-0.1905 0.1905,-0.22225 0.29633,-0.338666 -0.43391,-0.09525 -0.78316,-0.137584 -1.18533,-0.137584 -0.40217,0 -0.55033,0.04233 -0.81492,0.201084 -0.3175,0.211666 -0.77258,0.53975 -0.85725,0.635 -0.37041,0.391583 -0.74083,1.629833 -0.74083,2.455333 0,0.455083 0.16933,0.762 0.41275,0.762 0.21167,0 0.48683,-0.169333 1.70392,-1.058333 -0.0317,0.22225 -0.10584,0.783166 -0.10584,0.846666 0,0.137584 0.0529,0.201084 0.16934,0.201084 0.48683,0 1.54516,-0.66675 1.98966,-1.248834 0.64559,-0.867833 1.05834,-1.926166 1.05834,-2.741083 0,-0.508 -0.254,-0.92075 -0.67734,-1.090083 -0.3175,-0.127 -0.73025,-0.1905 -1.32291,-0.1905 -1.73567,0 -3.07975,0.518583 -3.86292,1.49225 -0.65617,0.8255 -1.15358,2.423583 -1.15358,3.693583 0,0.497417 0.15875,0.910167 0.43391,1.132417 0.24342,0.201083 0.58209,0.275166 1.18534,0.275166 1.2065,0 2.16958,-0.201083 3.40783,-0.6985 z m -0.94191,-1.830917 c -0.70909,0.529167 -1.02659,0.719667 -1.2065,0.719667 -0.16934,0 -0.26459,-0.1905 -0.26459,-0.518584 0,-0.497416 0.13759,-1.100666 0.37042,-1.651 0.22225,-0.508 0.43392,-0.73025 0.74083,-0.73025 0.15875,0 0.5715,0.05292 0.83609,0.116417 -0.14817,0.60325 -0.20109,0.804333 -0.254,0.994833 -0.0106,0.07408 -0.0741,0.34925 -0.14817,0.73025 -0.0317,0.116417 -0.0529,0.232834 -0.0741,0.338667 z"
         style="stroke-width:0.26458332;fill:#031da3;fill-opacity:1"
         id="path883" />
      <path
         d="m -364.08897,46.729869 c 0.0423,-0.232833 0.0953,-0.433917 0.13758,-0.60325 l 0.15875,-0.592667 c 0.0212,-0.09525 0.0423,-0.169333 0.0529,-0.232833 0.1905,-0.05292 0.20108,-0.05292 0.53975,-0.592667 -0.86784,0.02117 -1.11125,0.02117 -1.22767,0.02117 -0.64558,0.01058 -0.8255,0.04233 -1.143,0.232833 -0.508,0.3175 -0.86783,0.613834 -1.09008,0.899584 -0.3175,0.41275 -0.6985,1.693333 -0.6985,2.338916 0,0.264584 0.0635,0.455084 0.23283,0.687917 l -1.21708,1.04775 c -0.52917,0.465666 -0.77259,0.814916 -0.77259,1.11125 0,0.391583 0.46567,0.613833 1.27,0.613833 0.97367,0 1.73567,-0.275167 2.44475,-0.889 0.45509,-0.391583 0.56092,-0.613833 0.78317,-1.661583 z m -1.38642,2.899833 c -0.13758,0.635 -0.23283,0.878417 -0.42333,1.0795 -0.23284,0.264583 -0.66675,0.402167 -1.29117,0.402167 -0.68792,0 -1.05833,-0.1905 -1.05833,-0.529167 0,-0.433917 0.28575,-0.6985 3.22791,-2.95275 z m 1.23825,-4.339166 h 0.33867 c -0.0529,0.04233 -0.11642,0.09525 -0.16934,0.127 -0.33866,0.243416 -0.41275,0.338666 -0.508,0.592666 -0.0953,0.306917 -0.21166,0.719667 -0.34925,1.23825 -0.21166,0.137584 -0.46566,0.328084 -1.35466,0.994834 -0.1905,-0.1905 -0.26459,-0.359834 -0.26459,-0.613834 0,-0.359833 0.254,-1.280583 0.47625,-1.788583 0.21167,-0.433917 0.43392,-0.53975 1.2065,-0.53975 0.0741,0 0.20109,0 0.33867,-0.01058 z"
         style="stroke-width:0.26458332;fill:#031da3;fill-opacity:1"
         id="path885" />
      <path
         d="m -362.32801,48.867702 0.67733,-2.57175 c 0.70909,-0.47625 1.143,-0.73025 1.28059,-0.73025 0.0847,0 0.13758,0.09525 0.13758,0.232834 0,0.3175 -0.40217,1.926166 -0.84667,3.354916 l 0.80434,-0.28575 0.65616,-2.645833 c 0.61384,-0.391583 1.18534,-0.709083 1.31234,-0.709083 0.0847,0 0.13758,0.07408 0.13758,0.201083 0,0.232833 -0.0952,0.66675 -0.381,1.799167 -0.16933,0.656166 -0.22225,0.92075 -0.22225,1.164166 0,0.22225 0.0635,0.338667 0.254,0.47625 0.62442,-0.306916 1.15358,-0.645583 1.79917,-1.153583 v -0.243417 c -0.10584,0.05292 -0.22225,0.127 -0.35984,0.22225 -0.381,0.243417 -0.56091,0.328084 -0.68791,0.328084 -0.11642,0 -0.1905,-0.105834 -0.1905,-0.28575 0,-0.232834 0.13758,-0.836084 0.34925,-1.576917 0.3175,-1.090083 0.40216,-1.42875 0.40216,-1.5875 0,-0.105833 -0.0635,-0.15875 -0.16933,-0.15875 -0.1905,0 -0.84667,0.338667 -2.13783,1.100667 0.0317,-0.116417 0.0423,-0.201084 0.0529,-0.243417 0.127,-0.529167 0.15875,-0.677333 0.15875,-0.740833 0,-0.07408 -0.0529,-0.116417 -0.13758,-0.116417 -0.15875,0 -0.70908,0.296333 -1.76742,0.973667 l -0.33866,0.211666 c 0.1905,-0.772583 0.23283,-0.963083 0.23283,-1.037166 0,-0.08467 -0.0635,-0.148167 -0.15875,-0.148167 -0.127,0 -0.96308,0.455083 -1.651,0.889 l -0.0741,0.296333 c 0.58208,-0.28575 0.66675,-0.3175 0.78316,-0.3175 0.0953,0 0.15875,0.08467 0.15875,0.201084 0,0.169333 -0.381,1.735666 -0.8255,3.386666 z"
         style="stroke-width:0.26458332;fill:#031da3;fill-opacity:1"
         id="path887" />
      <path
         d="m -352.29352,47.671786 c -0.79375,0.529166 -0.9525,0.624416 -1.05833,0.624416 -0.0741,0 -0.127,-0.08467 -0.127,-0.211666 0,-0.275167 0.254,-1.439334 0.635,-2.846917 0.11641,-0.15875 0.13758,-0.1905 0.30691,-0.381 -0.508,-0.116417 -0.87841,-0.15875 -1.3335,-0.15875 -0.43391,0 -0.635,0.04233 -0.91016,0.211667 -0.381,0.22225 -0.8255,0.550333 -0.96309,0.6985 -0.39158,0.4445 -0.83608,1.87325 -0.83608,2.7305 0,0.508 0.16933,0.846666 0.43392,0.846666 0.23283,0 0.58208,-0.211666 1.905,-1.164166 -0.10584,0.486833 -0.15875,0.814916 -0.15875,0.941916 0,0.137584 0.0635,0.22225 0.16933,0.22225 0.127,0 0.127,0 0.97367,-0.53975 0.30691,-0.201083 0.55033,-0.370416 0.9525,-0.66675 z m -2.06375,0.0635 c -0.62442,0.455083 -0.94192,0.635 -1.13242,0.635 -0.16933,0 -0.27516,-0.1905 -0.27516,-0.529167 0,-0.529167 0.16933,-1.248833 0.43391,-1.852083 0.254,-0.582084 0.48684,-0.804334 0.84667,-0.804334 0.1905,0 0.51858,0.05292 0.89958,0.137584 -0.21166,0.804333 -0.28575,1.04775 -0.29633,1.100666 -0.0635,0.264584 -0.11642,0.529167 -0.17992,0.804334 -0.0106,0.05292 -0.0423,0.179916 -0.0952,0.370416 z"
         style="stroke-width:0.26458332;fill:#031da3;fill-opacity:1"
         id="path889" />
      <path
         d="m -350.49518,43.819452 c 0.30691,-0.275166 0.32808,-0.296333 0.68791,-0.5715 -0.0635,-0.127 -0.11641,-0.211666 -0.13758,-0.243416 -0.0635,-0.127 -0.0741,-0.137584 -0.15875,-0.338667 -0.0212,-0.04233 -0.0423,-0.08467 -0.0635,-0.137583 -0.0529,0.04233 -0.11642,0.08467 -0.14817,0.116416 -0.0423,0.04233 -0.127,0.105834 -0.23283,0.1905 -0.0529,0.04233 -0.127,0.09525 -0.22225,0.15875 -0.0423,0.03175 -0.0847,0.0635 -0.127,0.08467 0.0741,0.232833 0.16933,0.402167 0.40217,0.740833 z m 0.73025,4.0005 c -1.00542,0.53975 -1.02659,0.550334 -1.16417,0.550334 -0.11642,0 -0.1905,-0.116417 -0.1905,-0.296334 0,-0.105833 0.0317,-0.306916 0.0952,-0.53975 0.53975,-2.2225 0.64558,-2.645833 0.64558,-2.7305 0,-0.0635 -0.0529,-0.105833 -0.127,-0.105833 -0.17991,0 -0.80433,0.34925 -1.67216,0.931333 l -0.0212,0.296334 c 0.62442,-0.338667 0.67733,-0.359834 0.77258,-0.359834 0.0847,0 0.127,0.0635 0.127,0.1905 0,0.137584 -0.0318,0.28575 -0.1905,0.889 -0.49741,1.852084 -0.49741,1.852084 -0.49741,2.116667 0,0.254 0.10583,0.423333 0.254,0.423333 0.17991,0 0.46566,-0.137583 1.02658,-0.497416 0.20108,-0.127 0.40217,-0.254 0.60325,-0.391584 0.0952,-0.05292 0.1905,-0.116416 0.29633,-0.179916 z"
         style="stroke-width:0.26458332;fill:#031da3;fill-opacity:1"
         id="path891" />
      <path
         d="m -347.26479,47.682369 c -0.14816,0.08467 -0.24341,0.148167 -0.28575,0.169333 -0.762,0.47625 -0.84666,0.518584 -0.99483,0.518584 -0.0953,0 -0.1905,-0.127 -0.1905,-0.275167 v -0.09525 -0.09525 c 0,-0.1905 0.47625,-2.243667 0.86783,-3.735917 0.41275,-1.55575 0.508,-1.74625 0.97367,-1.74625 0.13758,0 0.24342,0.01058 0.51858,0.07408 l 0.45509,-0.560917 c -0.22225,-0.05292 -0.33867,-0.0635 -0.47625,-0.0635 -0.42334,0 -0.762,0.169333 -1.27,0.624417 -0.46567,0.423333 -0.58209,0.582083 -0.71967,0.963083 -0.0847,0.254 -0.3175,1.11125 -0.42333,1.576917 l -0.762,3.312583 c -0.0106,0.0635 -0.0212,0.127 -0.0212,0.1905 0,0.3175 0.17992,0.645583 0.34925,0.645583 h 0.0635 0.0317 c 0.10583,0 0.55033,-0.306916 1.88383,-1.27 z"
         style="stroke-width:0.26458332;fill:#031da3;fill-opacity:1"
         id="path893" />
      <path
         d="m -346.55322,48.105702 -0.28575,0.22225 c 0.0847,0.232834 0.29633,0.5715 0.49741,0.814917 0.40217,-0.296333 0.49742,-0.370417 0.78317,-0.66675 -0.127,-0.179917 -0.23283,-0.34925 -0.24342,-0.359833 -0.0741,-0.116417 -0.127,-0.201084 -0.254,-0.423334 -0.0317,0.03175 -0.0847,0.07408 -0.14816,0.127 -0.0847,0.0635 -0.16934,0.137584 -0.254,0.211667 z"
         style="stroke-width:0.26458332;fill:#031da3;fill-opacity:1"
         id="path895" />
      <path
         d="m -341.5822,47.703536 c -0.81491,0.582083 -1.37583,0.878416 -1.7145,0.878416 -0.381,0 -0.60325,-0.296333 -0.60325,-0.804333 0,-0.508 0.127,-1.185333 0.32809,-1.68275 0.21166,-0.560917 0.48683,-0.846667 0.79375,-0.846667 0.254,0 0.39158,0.201084 0.4445,0.66675 l 0.61383,-0.359833 c 0.0106,-0.05292 0.0106,-0.105833 0.0106,-0.116417 0,-0.455083 -0.23283,-0.740833 -0.60325,-0.740833 -0.1905,0 -0.30691,0.04233 -0.68791,0.296333 -0.79375,0.497417 -0.96309,0.656167 -1.19592,1.090084 -0.29633,0.5715 -0.51858,1.471083 -0.51858,2.12725 0,0.613833 0.28575,0.973666 0.77258,0.973666 0.508,0 1.37583,-0.423333 2.33892,-1.143 z"
         style="stroke-width:0.26458332;fill:#031da3;fill-opacity:1"
         id="path897" />
      <path
         d="m -338.23952,44.697869 c -0.42333,0 -1.10066,0.306917 -1.72508,0.772583 -0.67733,0.508 -1.15358,1.608667 -1.15358,2.656417 0,0.645583 0.35983,1.058333 0.92075,1.058333 0.29633,0 0.59266,-0.105833 1.0795,-0.359833 0.52916,-0.296333 0.87841,-0.560917 1.06891,-0.814917 0.42334,-0.5715 0.762,-1.608666 0.762,-2.338916 0,-0.5715 -0.39158,-0.973667 -0.9525,-0.973667 z m -0.55033,0.497417 c 0.42333,0 0.68792,0.41275 0.68792,1.04775 0,0.4445 -0.14817,0.994833 -0.41275,1.513416 -0.29634,0.60325 -0.67734,0.931334 -1.0795,0.931334 -0.43392,0 -0.70909,-0.391584 -0.70909,-0.994834 0,-1.227666 0.77259,-2.497666 1.51342,-2.497666 z"
         style="stroke-width:0.26458332;fill:#031da3;fill-opacity:1"
         id="path899" />
      <path
         d="m -336.07638,48.867702 0.67733,-2.57175 c 0.70908,-0.47625 1.143,-0.73025 1.28058,-0.73025 0.0847,0 0.13759,0.09525 0.13759,0.232834 0,0.3175 -0.40217,1.926166 -0.84667,3.354916 l 0.80433,-0.28575 0.65617,-2.645833 c 0.61383,-0.391583 1.18533,-0.709083 1.31233,-0.709083 0.0847,0 0.13759,0.07408 0.13759,0.201083 0,0.232833 -0.0953,0.66675 -0.381,1.799167 -0.16934,0.656166 -0.22225,0.92075 -0.22225,1.164166 0,0.22225 0.0635,0.338667 0.254,0.47625 0.62441,-0.306916 1.15358,-0.645583 1.79916,-1.153583 v -0.243417 c -0.10583,0.05292 -0.22225,0.127 -0.35983,0.22225 -0.381,0.243417 -0.56092,0.328084 -0.68792,0.328084 -0.11641,0 -0.1905,-0.105834 -0.1905,-0.28575 0,-0.232834 0.13759,-0.836084 0.34925,-1.576917 0.3175,-1.090083 0.40217,-1.42875 0.40217,-1.5875 0,-0.105833 -0.0635,-0.15875 -0.16933,-0.15875 -0.1905,0 -0.84667,0.338667 -2.13784,1.100667 0.0317,-0.116417 0.0423,-0.201084 0.0529,-0.243417 0.127,-0.529167 0.15875,-0.677333 0.15875,-0.740833 0,-0.07408 -0.0529,-0.116417 -0.13758,-0.116417 -0.15875,0 -0.70909,0.296333 -1.76742,0.973667 l -0.33867,0.211666 c 0.1905,-0.772583 0.23284,-0.963083 0.23284,-1.037166 0,-0.08467 -0.0635,-0.148167 -0.15875,-0.148167 -0.127,0 -0.96309,0.455083 -1.651,0.889 l -0.0741,0.296333 c 0.58209,-0.28575 0.66675,-0.3175 0.78317,-0.3175 0.0952,0 0.15875,0.08467 0.15875,0.201084 0,0.169333 -0.381,1.735666 -0.8255,3.386666 z"
         style="stroke-width:0.26458332;fill:#031da3;fill-opacity:1"
         id="path901" />
    </g>
  </g>
</svg>
